<?xml version="1.0" encoding="utf-8"?>
<svg id="Layer_1" data-name="Layer 1" xmlns="http://www.w3.org/2000/svg" viewBox="0 0 698.25 135.55">
  <defs>
    <style>.cls-1{fill:#fff;}</style>
  </defs>
  <title>logo-ba-preto</title>
  <rect x="0.44" width="135.55" height="135.55" rx="27.11" style="fill: rgb(105, 86, 67);"/>
  <path class="cls-1" d="M104.19,70.81c-.2-.24-3.31-4.58-5-6.55L99.4,64c4.16-4.17,6.27-10.17,6.27-17.82V37.89a17.84,17.84,0,0,0-6.1-13.44c-4.48-4.2-10.29-6.33-17.28-6.33H39.69v99.42l7.42,0,39-.12c7,0,12.8-2.13,17.28-6.33a17.84,17.84,0,0,0,6.1-13.44V87C109.35,81,106.75,74,104.19,70.81ZM47.11,25.55H82.43c4.76,0,8.65,1.3,11.53,3.89a12.24,12.24,0,0,1,4.28,9.62v7c0,5.52-1.33,9.76-4,12.58s-6.59,4.2-11.85,4.2L47.11,63Zm55,70.91a12.26,12.26,0,0,1-4.29,9.63C94.91,108.67,91,110,86.26,110l-39.15.14V70.47l34.64-.15c4.16,0,6.41-.08,9.28-.08a7.69,7.69,0,0,1,6.13,3.35,23.58,23.58,0,0,1,4.92,13.47Z"/>
  <polygon class="cls-1" points="47.11 117.52 47.11 117.54 39.69 117.54 47.11 117.52"/>
  <path class="cls-1" d="M.44,27.11v81.33a27.08,27.08,0,0,0,14.53,24V3.1A27.08,27.08,0,0,0,.44,27.11Z"/>
  <path d="M.44,27.11v81.33a27,27,0,0,0,10.27,21.23V5.87A27.06,27.06,0,0,0,.44,27.11Z" style="fill: rgb(105, 86, 67);"/>
  <path d="M166.16,66V24.22h21.17a8.07,8.07,0,0,1,6.44,2.84,9,9,0,0,1,2.44,6v5a10.31,10.31,0,0,1-.06,1.3,6.6,6.6,0,0,1-.41,1.37A8.65,8.65,0,0,1,192.61,45l1.39.93a6.58,6.58,0,0,1,2.27,5.39v4a11.16,11.16,0,0,1-2.76,7.62A8.75,8.75,0,0,1,186.64,66Zm6-35.73V42.2H186a4.34,4.34,0,0,0,3-1.05,3.77,3.77,0,0,0,1.16-2.95v-4a3.58,3.58,0,0,0-1.25-2.75,4.27,4.27,0,0,0-3-1.13Zm0,18V60h13.63a4.12,4.12,0,0,0,3-1.34,4.27,4.27,0,0,0,1.31-3.07V51.59a3.16,3.16,0,0,0-1.51-2.37,5.35,5.35,0,0,0-2.73-.93Z" style="fill: rgb(105, 86, 67);"/>
  <path d="M203.23,34.66h18.56a12.75,12.75,0,0,1,3.1.29,4.41,4.41,0,0,1,2.17,1.45,7.9,7.9,0,0,1,2.32,5.51V58a7.88,7.88,0,0,1-2.29,5.57A7.15,7.15,0,0,1,221.73,66h-10.5a7.46,7.46,0,0,1-5.6-2.56,8.29,8.29,0,0,1-2.4-5.85V53.86q0-9.75,7.94-9.75h12.94v-2c0-1.47-1.05-2.2-3.14-2.2H203.23Zm6.43,25.63a5.82,5.82,0,0,0,3.08.53h7.07a9.56,9.56,0,0,0,2.5-.24,2.42,2.42,0,0,0,1.39-1.45l.41-1.39v-5c0-2.29-1.42-3.43-4.24-3.43h-7.25q-4.17,0-4.17,3.43v5a3.2,3.2,0,0,0,.31,1.25A4.46,4.46,0,0,0,209.66,60.29Z" style="fill: rgb(105, 86, 67);"/>
  <path d="M236.69,66V43q0-4.29,1.74-6.2c1.35-1.4,3.35-2.09,6-2.09h3v5.28h-2.55q-2.9,0-2.9,3.13V66Z" style="fill: rgb(105, 86, 67);"/>
  <path d="M251.83,66V43q0-4.29,1.74-6.2c1.35-1.4,3.34-2.09,6-2.09h3v5.28H260c-1.94,0-2.9,1-2.9,3.13V66Z" style="fill: rgb(105, 86, 67);"/>
  <path d="M292.83,34.66V58a7.94,7.94,0,0,1-2.72,6.38C288.79,65.49,286.76,66,284,66h-8.3c-2.66,0-4.68-.55-6-1.63A7.71,7.71,0,0,1,267,58V34.66h5.22V57.34l.05,1.45a1.92,1.92,0,0,0,.64,1.1,4.24,4.24,0,0,0,2.84.81h8.36a4.14,4.14,0,0,0,2.78-.73,3.43,3.43,0,0,0,.81-2.63V34.66Z" style="fill: rgb(105, 86, 67);"/>
  <path d="M326.24,66H308.78a8.74,8.74,0,0,1-6.2-2.27,7.47,7.47,0,0,1-1.74-2.61,9.07,9.07,0,0,1-.58-3.42v-14q0-9.06,9.63-9.05h7.77a8.41,8.41,0,0,1,6.12,2.11A7.94,7.94,0,0,1,326,42.72v3.71l-20.47,9.51V57a5.54,5.54,0,0,0,.61,2.69c.4.76,1.38,1.14,2.93,1.14h17.22ZM305.48,43.82v6.32l15.19-7.07v-.52a2.56,2.56,0,0,0-.72-2.06,3.87,3.87,0,0,0-2.47-.61H309Q305.48,39.88,305.48,43.82Z" style="fill: rgb(105, 86, 67);"/>
  <path d="M353.33,66h-12a8.88,8.88,0,0,1-6.2-2.27,7.31,7.31,0,0,1-2.5-5.68V42.6q0-4.23,2.9-6.2a10.12,10.12,0,0,1,5.74-1.74h11.95v5.22H341.26a3.27,3.27,0,0,0-3.42,3.42V56.93a4.14,4.14,0,0,0,1.05,2.78,3.47,3.47,0,0,0,2.55,1.11h11.89Z" style="fill: rgb(105, 86, 67);"/>
  <path d="M367.54,66a8.51,8.51,0,0,1-6-2.18,7.3,7.3,0,0,1-2.35-5.6V42a6.8,6.8,0,0,1,2.24-5.45,9.13,9.13,0,0,1,6.12-1.91h9.57a8.86,8.86,0,0,1,6.06,2A6.78,6.78,0,0,1,385.46,42v16.3a7.18,7.18,0,0,1-2.38,5.51,8.44,8.44,0,0,1-6,2.21Zm-3.14-9.4c0,2.78,1.24,4.18,3.72,4.18h8.41q3.71,0,3.71-4V43.65c0-2.52-1.24-3.77-3.71-3.77h-8.41c-2.48,0-3.72,1.25-3.72,3.77Z" style="fill: rgb(105, 86, 67);"/>
  <path d="M405.47,66l13.86-37.88a9.1,9.1,0,0,1,1.91-3.42,4.12,4.12,0,0,1,2.85-1,4.47,4.47,0,0,1,3,.87,8.91,8.91,0,0,1,2.09,3.54L442.94,66h-6.5l-3.13-8.7H415.15L412,66Zm18.62-33.82L417.36,51.3h13.69Z" style="fill: rgb(105, 86, 67);"/>
  <path d="M471.47,24.22v33a9.1,9.1,0,0,1-2.26,6.23A7.05,7.05,0,0,1,463.7,66H453.43a8,8,0,0,1-5.8-2.56,7.7,7.7,0,0,1-2-5.68V42.6q0-7.93,8.47-7.94h12.12V24.22ZM450.88,57.51a3.51,3.51,0,0,0,.81,2.35,2.5,2.5,0,0,0,2,1h9.16a3.17,3.17,0,0,0,2.44-1.08,3.84,3.84,0,0,0,1-2.69V43.3q0-3.42-3.36-3.42H454.3q-3.42,0-3.42,3.54Z" style="fill: rgb(105, 86, 67);"/>
  <path d="M475.13,34.66h5.56l9.46,25.52,9.57-25.52h5.56L494.56,63.43a4.45,4.45,0,0,1-4.41,3.19,4.39,4.39,0,0,1-4.35-3.19Z" style="fill: rgb(105, 86, 67);"/>
  <path d="M517.29,66a8.47,8.47,0,0,1-6-2.18,7.26,7.26,0,0,1-2.35-5.6V42a6.8,6.8,0,0,1,2.23-5.45,9.13,9.13,0,0,1,6.12-1.91h9.57a8.86,8.86,0,0,1,6.06,2A6.74,6.74,0,0,1,535.21,42v16.3a7.2,7.2,0,0,1-2.37,5.51,8.47,8.47,0,0,1-6,2.21Zm-3.13-9.4c0,2.78,1.24,4.18,3.71,4.18h8.41c2.48,0,3.71-1.32,3.71-4V43.65c0-2.52-1.23-3.77-3.71-3.77h-8.41c-2.47,0-3.71,1.25-3.71,3.77Z" style="fill: rgb(105, 86, 67);"/>
  <path d="M542.64,76.24V71h16.87a4.35,4.35,0,0,0,2.79-.69,3.73,3.73,0,0,0,1.16-2.9V66H551a7.76,7.76,0,0,1-5.8-2.47,8.37,8.37,0,0,1-2.38-6.06V42.72A8.22,8.22,0,0,1,544.93,37a6.83,6.83,0,0,1,5.3-2.35h11.08a7,7,0,0,1,5.28,2.09,7.64,7.64,0,0,1,2,5.56V68.53a7.06,7.06,0,0,1-2.38,5.65,9.54,9.54,0,0,1-6.49,2.06ZM548,57.05a3.87,3.87,0,0,0,1,2.69,3.08,3.08,0,0,0,2.4,1.08h9.17q2.9,0,2.9-3.77V43.42q0-3.54-2.84-3.54H551.8q-3.76,0-3.77,3.54Z" style="fill: rgb(105, 86, 67);"/>
  <path d="M576,34.66H594.6a12.78,12.78,0,0,1,3.11.29,4.41,4.41,0,0,1,2.17,1.45,7.9,7.9,0,0,1,2.32,5.51V58a7.88,7.88,0,0,1-2.29,5.57A7.17,7.17,0,0,1,594.55,66h-10.5a7.45,7.45,0,0,1-5.6-2.56A8.3,8.3,0,0,1,576,57.63V53.86q0-9.75,8-9.75h12.93v-2c0-1.47-1-2.2-3.13-2.2H576Zm6.44,25.63a5.82,5.82,0,0,0,3.08.53h7.07a9.61,9.61,0,0,0,2.5-.24,2.42,2.42,0,0,0,1.39-1.45l.4-1.39v-5q0-3.44-4.23-3.43h-7.25c-2.78,0-4.18,1.14-4.18,3.43v5a3.24,3.24,0,0,0,.32,1.25A4.1,4.1,0,0,0,582.48,60.29Z" style="fill: rgb(105, 86, 67);"/>
  <path d="M634.74,24.22v33a9.15,9.15,0,0,1-2.26,6.23A7.05,7.05,0,0,1,627,66H616.7a8,8,0,0,1-5.8-2.56,7.7,7.7,0,0,1-2-5.68V42.6q0-7.93,8.47-7.94h12.12V24.22ZM614.15,57.51a3.51,3.51,0,0,0,.81,2.35,2.49,2.49,0,0,0,2,1h9.17a3.15,3.15,0,0,0,2.43-1.08,3.8,3.8,0,0,0,1-2.69V43.3q0-3.42-3.36-3.42h-8.59q-3.42,0-3.42,3.54Z" style="fill: rgb(105, 86, 67);"/>
  <path d="M650.52,66a8.51,8.51,0,0,1-6-2.18,7.3,7.3,0,0,1-2.35-5.6V42a6.8,6.8,0,0,1,2.24-5.45,9.1,9.1,0,0,1,6.12-1.91h9.57a8.86,8.86,0,0,1,6.06,2A6.78,6.78,0,0,1,668.44,42v16.3a7.18,7.18,0,0,1-2.38,5.51,8.46,8.46,0,0,1-6,2.21Zm-3.14-9.4c0,2.78,1.24,4.18,3.72,4.18h8.41q3.71,0,3.71-4V43.65c0-2.52-1.24-3.77-3.71-3.77H651.1c-2.48,0-3.72,1.25-3.72,3.77Z" style="fill: rgb(105, 86, 67);"/>
  <path d="M674.76,66V60.82h16.06c1.44,0,2.15-1,2.15-3.14V55.25q0-3-3.07-3h-7.08a8.57,8.57,0,0,1-5.39-1.45,6,6,0,0,1-2.5-5.05V41.85a9.77,9.77,0,0,1,.41-3,5.73,5.73,0,0,1,1.45-2.29,6.8,6.8,0,0,1,5.1-1.91h16.36v5.22H682.36a2.21,2.21,0,0,0-1.6.66,2.28,2.28,0,0,0-.66,1.66v2.26a2.54,2.54,0,0,0,.81,1.86A3.24,3.24,0,0,0,683,47h7.78A7.29,7.29,0,0,1,696,49.13a6.84,6.84,0,0,1,2.2,5.13v4.93a6.64,6.64,0,0,1-2,4.79,6.41,6.41,0,0,1-4.7,2.06Z" style="fill: rgb(105, 86, 67);"/>
  <path d="M173.59,105.08l-3.25,9.82h-4.18l10.67-31.23h4.81L192.3,114.9H188l-3.33-9.82Zm10.28-3.15-3.1-9c-.69-2-1.16-3.89-1.63-5.69h-.09c-.46,1.8-.92,3.75-1.58,5.65l-3.05,9Z" style="fill: rgb(105, 86, 67);"/>
  <path d="M196.33,110.77a11.41,11.41,0,0,0,5.42,1.59c2.92,0,4.31-1.45,4.31-3.34s-1.16-3-4.12-4.08c-4.08-1.48-6-3.66-6-6.34,0-3.63,3-6.59,7.74-6.59a10.35,10.35,0,0,1,5.46,1.39l-1,3A8.71,8.71,0,0,0,203.6,95c-2.41,0-3.7,1.39-3.7,3.06,0,1.85,1.29,2.69,4.21,3.85,3.85,1.43,5.89,3.38,5.89,6.72,0,4-3.1,6.76-8.34,6.76a12.68,12.68,0,0,1-6.31-1.58Z" style="fill: rgb(105, 86, 67);"/>
  <path d="M215.1,110.77a11.37,11.37,0,0,0,5.41,1.59c2.93,0,4.31-1.45,4.31-3.34s-1.16-3-4.13-4.08c-4.07-1.48-6-3.66-6-6.34,0-3.63,3-6.59,7.74-6.59a10.35,10.35,0,0,1,5.46,1.39l-1,3A8.63,8.63,0,0,0,222.37,95c-2.41,0-3.72,1.39-3.72,3.06,0,1.85,1.31,2.69,4.22,3.85,3.85,1.43,5.89,3.38,5.89,6.72,0,4-3.1,6.76-8.34,6.76a12.64,12.64,0,0,1-6.3-1.58Z" style="fill: rgb(105, 86, 67);"/>
  <path d="M254.71,103.5c0,8.3-5.79,11.91-11.17,11.91-6,0-10.75-4.45-10.75-11.54,0-7.46,5-11.86,11.12-11.86C250.35,92,254.71,96.69,254.71,103.5Zm-17.76.24c0,4.91,2.79,8.62,6.77,8.62s6.82-3.67,6.82-8.72c0-3.8-1.9-8.57-6.73-8.57S237,99.52,237,103.74Z" style="fill: rgb(105, 86, 67);"/>
  <path d="M276.24,114.11a15.86,15.86,0,0,1-6.44,1.3c-6.76,0-11.16-4.59-11.16-11.44s4.73-12,12-12a12.78,12.78,0,0,1,5.66,1.21l-.93,3.1a10,10,0,0,0-4.73-1.06c-5.13,0-7.91,3.84-7.91,8.48,0,5.19,3.33,8.38,7.78,8.38a11.63,11.63,0,0,0,5-1.07Z" style="fill: rgb(105, 86, 67);"/>
  <path d="M286,86.18a2.43,2.43,0,0,1-2.59,2.5,2.39,2.39,0,0,1-2.46-2.5,2.49,2.49,0,0,1,2.56-2.56A2.44,2.44,0,0,1,286,86.18Zm-4.54,28.72V92.47h4.08V114.9Z" style="fill: rgb(105, 86, 67);"/>
  <path d="M308.44,109.52a39.61,39.61,0,0,0,.32,5.38h-3.65l-.33-2.82h-.14a8.37,8.37,0,0,1-6.85,3.33c-4.54,0-6.86-3.2-6.86-6.44,0-5.42,4.82-8.39,13.49-8.35v-.46c0-1.8-.51-5.19-5.1-5.14a10.87,10.87,0,0,0-5.89,1.67L292.5,94A14.54,14.54,0,0,1,299.92,92c6.86,0,8.52,4.68,8.52,9.13Zm-3.94-6.06c-4.45-.1-9.49.69-9.49,5a3.57,3.57,0,0,0,3.8,3.89,5.7,5.7,0,0,0,5.52-3.74,4.89,4.89,0,0,0,.17-1.3Z" style="fill: rgb(105, 86, 67);"/>
  <path d="M334.76,82v27.1c0,2,.09,4.27.18,5.8h-3.61l-.18-3.89H331a8.08,8.08,0,0,1-7.55,4.4c-5.42,0-9.63-4.59-9.63-11.4-.05-7.46,4.63-12,10.05-12,3.48,0,5.75,1.62,6.77,3.38h.09V82Zm-4,19.61a7.28,7.28,0,0,0-.19-1.73,6,6,0,0,0-5.88-4.68c-4.22,0-6.72,3.71-6.72,8.63,0,4.54,2.27,8.29,6.63,8.29a6.17,6.17,0,0,0,6-4.87,7,7,0,0,0,.19-1.75Z" style="fill: rgb(105, 86, 67);"/>
  <path d="M362.27,103.5c0,8.3-5.79,11.91-11.16,11.91-6,0-10.74-4.45-10.74-11.54,0-7.46,4.95-11.86,11.11-11.86C357.93,92,362.27,96.69,362.27,103.5Zm-17.73.24c0,4.91,2.77,8.62,6.76,8.62s6.81-3.67,6.81-8.72c0-3.8-1.9-8.57-6.72-8.57S344.54,99.52,344.54,103.74Z" style="fill: rgb(105, 86, 67);"/>
  <path d="M367.28,110.77a11.41,11.41,0,0,0,5.42,1.59c2.92,0,4.31-1.45,4.31-3.34s-1.16-3-4.12-4.08c-4.08-1.48-6-3.66-6-6.34,0-3.63,3-6.59,7.73-6.59a10.38,10.38,0,0,1,5.47,1.39l-1,3A8.57,8.57,0,0,0,374.55,95c-2.41,0-3.7,1.39-3.7,3.06,0,1.85,1.29,2.69,4.22,3.85,3.84,1.43,5.88,3.38,5.88,6.72,0,4-3.1,6.76-8.34,6.76a12.64,12.64,0,0,1-6.3-1.58Z" style="fill: rgb(105, 86, 67);"/>
</svg>