<?xml version="1.0" encoding="utf-8"?>
<svg id="Layer_1" data-name="Layer 1" xmlns="http://www.w3.org/2000/svg" viewBox="0 0 135.55 135.55">
  <defs>
    <style>.cls-1{fill:#fff;}</style>
  </defs>
  <title>icone-ba-preto</title>
  <rect width="135.55" height="135.55" rx="27.11" style="fill: rgb(105, 86, 67);"/>
  <path class="cls-1" d="M103.75,70.81c-.2-.24-3.31-4.58-5-6.55L99,64c4.16-4.17,6.27-10.17,6.27-17.82V37.89a17.84,17.84,0,0,0-6.1-13.44c-4.48-4.2-10.29-6.33-17.28-6.33H39.25v99.42l7.42,0,39-.12c7,0,12.8-2.13,17.28-6.33a17.84,17.84,0,0,0,6.1-13.44V87C108.91,81,106.31,74,103.75,70.81ZM46.67,25.55H82c4.76,0,8.65,1.3,11.53,3.89a12.24,12.24,0,0,1,4.28,9.62v7c0,5.52-1.33,9.76-4,12.58s-6.59,4.2-11.85,4.2L46.67,63Zm55,70.91a12.26,12.26,0,0,1-4.29,9.63c-2.88,2.58-6.76,3.88-11.53,3.88l-39.15.14V70.47l34.64-.15c4.16,0,6.41-.08,9.29-.08a7.67,7.67,0,0,1,6.12,3.35,23.58,23.58,0,0,1,4.92,13.47Z"/>
  <polygon class="cls-1" points="46.67 117.52 46.67 117.54 39.25 117.54 46.67 117.52"/>
  <path class="cls-1" d="M0,27.11v81.33a27.08,27.08,0,0,0,14.53,24V3.1A27.08,27.08,0,0,0,0,27.11Z"/>
  <path d="M0,27.11v81.33a27.05,27.05,0,0,0,10.27,21.23V5.87A27.09,27.09,0,0,0,0,27.11Z" style="fill: rgb(105, 86, 67);"/>
</svg>