<?xml version="1.0" encoding="utf-8"?>
<svg id="Layer_1" data-name="Layer 1" xmlns="http://www.w3.org/2000/svg" viewBox="0 0 730 135" xmlns:bx="https://boxy-svg.com">
  <defs>
    <style>.cls-1{fill:#fff;}</style>
    <style bx:fonts="Montserrat">@import url(https://fonts.googleapis.com/css2?family=Montserrat%3Aital%2Cwght%400%2C100..900%3B1%2C100..900&amp;display=swap);</style>
  </defs>
  <title>logo-ba-preto</title>
  <rect x="0.44" width="135.55" height="135.55" rx="27.11" style="fill: rgb(105, 86, 67);"/>
  <path class="cls-1" d="M104.19,70.81c-.2-.24-3.31-4.58-5-6.55L99.4,64c4.16-4.17,6.27-10.17,6.27-17.82V37.89a17.84,17.84,0,0,0-6.1-13.44c-4.48-4.2-10.29-6.33-17.28-6.33H39.69v99.42l7.42,0,39-.12c7,0,12.8-2.13,17.28-6.33a17.84,17.84,0,0,0,6.1-13.44V87C109.35,81,106.75,74,104.19,70.81ZM47.11,25.55H82.43c4.76,0,8.65,1.3,11.53,3.89a12.24,12.24,0,0,1,4.28,9.62v7c0,5.52-1.33,9.76-4,12.58s-6.59,4.2-11.85,4.2L47.11,63Zm55,70.91a12.26,12.26,0,0,1-4.29,9.63C94.91,108.67,91,110,86.26,110l-39.15.14V70.47l34.64-.15c4.16,0,6.41-.08,9.28-.08a7.69,7.69,0,0,1,6.13,3.35,23.58,23.58,0,0,1,4.92,13.47Z"/>
  <polygon class="cls-1" points="47.11 117.52 47.11 117.54 39.69 117.54 47.11 117.52"/>
  <path class="cls-1" d="M.44,27.11v81.33a27.08,27.08,0,0,0,14.53,24V3.1A27.08,27.08,0,0,0,.44,27.11Z"/>
  <path d="M.44,27.11v81.33a27,27,0,0,0,10.27,21.23V5.87A27.06,27.06,0,0,0,.44,27.11Z" style="fill: rgb(105, 86, 67);"/>
  <text style="fill: rgb(105, 86, 67); font-family: Montserrat; font-size: 55px; font-weight: 522.75; white-space: pre;" transform="matrix(0.998236, 0, 0, 1, 0.252998, 0)" x="143.46" y="67.029">Barrueco Advogados</text>
  <text style="fill: rgb(105, 86, 67); font-family: Montserrat; font-size: 34px; font-weight: 477; white-space: pre;" transform="matrix(1, 0, 0, 1, -4.167362, 25.004134)"><tspan x="154.372" y="85.527">Associados</tspan><tspan x="154.372" dy="1em">​</tspan><tspan x="154.372" dy="1em">​</tspan></text>
</svg>